<svg xmlns="http://www.w3.org/2000/svg" width="84" height="84" viewBox="0 0 84 84">
  <g id="Grupo_1177821" data-name="Grupo 1177821" transform="translate(-186 -885.516)">
    <g id="Grupo_1177401" data-name="Grupo 1177401" transform="translate(-558.629 -772.484)">
      <path id="Trazado_996971" data-name="Trazado 996971" d="M5,0H59A25,25,0,0,1,84,25V79a5,5,0,0,1-5,5H5a5,5,0,0,1-5-5V5A5,5,0,0,1,5,0Z" transform="translate(744.629 1658)" fill="#ff9e43"/>
      <g id="agronomy" transform="translate(754.629 1668.001)">
        <g id="Grupo_1177595" data-name="Grupo 1177595">
          <path id="Trazado_996972" data-name="Trazado 996972" d="M61,48v2a8,8,0,0,1-8,8V56A8,8,0,0,1,61,48Z" fill="#ccfc5c"/>
          <path id="Trazado_996973" data-name="Trazado 996973" d="M53,56v2a8,8,0,0,1-8-8V48A8,8,0,0,1,53,56Z" fill="#ccfc5c"/>
          <path id="Trazado_996974" data-name="Trazado 996974" d="M47.36,36.4c-.45,2.21-1.43,4.87-3.55,6.35C39.74,45.6,34.9,45.71,33,43s-.14-7.23,3.93-10.08,10.81-.24,10.81-.24v.06a19.166,19.166,0,0,1-.38,3.66Z" fill="#ccfc5c"/>
          <path id="Trazado_996975" data-name="Trazado 996975" d="M47.74,18.68s.15,7.22-3.93,10.07S34.9,31.71,33,29s-.14-7.23,3.93-10.08S47.74,18.68,47.74,18.68Z" fill="#ccfc5c"/>
          <path id="Trazado_996976" data-name="Trazado 996976" d="M38,12c0,4.97-2.69,9-6,9s-6-4.03-6-9,6-9,6-9S38,7.03,38,12Z" fill="#ccfc5c"/>
        </g>
        <path id="Trazado_996977" data-name="Trazado 996977" d="M47.74,32.68v.06a19.166,19.166,0,0,1-.38,3.66c-.45,2.21-1.43,4.87-3.55,6.35C39.74,45.6,34.9,45.71,33,43a4.24,4.24,0,0,1-.75-2.13,10.772,10.772,0,0,0,7.56-2.12c2.12-1.48,3.1-4.14,3.55-6.35.05-.24.09-.48.13-.71a18.7,18.7,0,0,1,4.25.99Z" fill="#a4e276"/>
        <path id="Trazado_996978" data-name="Trazado 996978" d="M43.81,28.75C39.74,31.6,34.9,31.71,33,29a4.24,4.24,0,0,1-.75-2.13,10.772,10.772,0,0,0,7.56-2.12c2.35-1.64,3.3-4.73,3.68-7.06a18.7,18.7,0,0,1,4.25.99S47.89,25.9,43.81,28.75Z" fill="#a4e276"/>
        <path id="Trazado_996979" data-name="Trazado 996979" d="M38,12c0,4.97-2.69,9-6,9-2.11,0-3.98-1.65-5.04-4.13A4.557,4.557,0,0,0,28,17c3.31,0,6-4.03,6-9a8.527,8.527,0,0,0-1.74-4.82C33.41,4.02,38,7.65,38,12Z" fill="#a4e276"/>
        <g id="Grupo_1177596" data-name="Grupo 1177596">
          <path id="Trazado_996980" data-name="Trazado 996980" d="M27.07,18.92C31.14,21.77,32.9,26.29,31,29s-6.74,2.6-10.81-.25-3.93-10.07-3.93-10.07S23,16.07,27.07,18.92Z" fill="#ccfc5c"/>
          <path id="Trazado_996981" data-name="Trazado 996981" d="M16.64,36.4a19.166,19.166,0,0,1-.38-3.66v-.06s6.74-2.61,10.81.24S32.9,40.29,31,43s-6.74,2.6-10.81-.25C18.07,41.27,17.09,38.61,16.64,36.4Z" fill="#ccfc5c"/>
          <path id="Trazado_996982" data-name="Trazado 996982" d="M19,48v2a8,8,0,0,1-8,8V56a8,8,0,0,1,8-8Z" fill="#ccfc5c"/>
          <path id="Trazado_996983" data-name="Trazado 996983" d="M11,56v2a8,8,0,0,1-8-8V48A8,8,0,0,1,11,56Z" fill="#ccfc5c"/>
        </g>
        <path id="Trazado_996984" data-name="Trazado 996984" d="M19,48v2a8,8,0,0,1-8,8V56a2.09,2.09,0,0,1,.01-.25,8,8,0,0,0,5.98-7.5A8.321,8.321,0,0,1,19,48Z" fill="#a4e276"/>
        <path id="Trazado_996985" data-name="Trazado 996985" d="M61,48v2a8,8,0,0,1-8,8V56a2.09,2.09,0,0,1,.01-.25,8,8,0,0,0,5.98-7.5A8.321,8.321,0,0,1,61,48Z" fill="#a4e276"/>
        <path id="Trazado_996986" data-name="Trazado 996986" d="M52.3,36.04a14.649,14.649,0,0,0-3.75-.63c.11-.84.16-1.54.18-2.03a15.468,15.468,0,0,1,4.42-1.39,16.9,16.9,0,0,1,8.49.94l.72-1.86a18.807,18.807,0,0,0-9.51-1.06,17.7,17.7,0,0,0-5.08,1.61,19.992,19.992,0,0,0-5.12-1.01,14.27,14.27,0,0,0,1.74-1.04c4.45-3.12,4.36-10.6,4.36-10.91a1.026,1.026,0,0,0-.64-.92c-.27-.1-5.78-2.18-10.13-.49A13.571,13.571,0,0,0,39,12c0-5.44-6.18-9.65-6.44-9.83a1,1,0,0,0-1.12,0C31.18,2.35,25,6.56,25,12a13.571,13.571,0,0,0,1.02,5.25c-4.35-1.69-9.86.39-10.13.49a1.026,1.026,0,0,0-.64.92c0,.31-.09,7.79,4.36,10.91a14.269,14.269,0,0,0,1.74,1.04,19.992,19.992,0,0,0-5.12,1.01,17.7,17.7,0,0,0-5.08-1.61,18.823,18.823,0,0,0-9.51,1.06l.72,1.86a16.9,16.9,0,0,1,8.49-.94,15.468,15.468,0,0,1,4.42,1.39c.02.49.07,1.19.18,2.03a14.5,14.5,0,0,0-3.74.63,16.037,16.037,0,0,0-9.62,8.55l1.82.82a14.233,14.233,0,0,1,8.39-7.45,12.662,12.662,0,0,1,3.55-.57,10.427,10.427,0,0,0,3.76,6.18,12.592,12.592,0,0,0,6.77,2.39c.08,0,.15.01.22.01A6.556,6.556,0,0,0,31,44.48V62h2V44.48a6.556,6.556,0,0,0,4.4,1.49c.07,0,.14-.01.22-.01a12.592,12.592,0,0,0,6.77-2.39,10.427,10.427,0,0,0,3.76-6.18,12.79,12.79,0,0,1,3.56.57,14.237,14.237,0,0,1,8.38,7.45l1.82-.82a16.041,16.041,0,0,0-9.61-8.55ZM46.73,19.39c-.09,1.78-.59,6.51-3.49,8.54a10.518,10.518,0,0,1-5.67,2.03,4.277,4.277,0,0,1-3.75-1.53c-1.56-2.22.13-6.2,3.68-8.69C40.4,17.71,45.03,18.86,46.73,19.39ZM20.76,27.93c-2.89-2.02-3.4-6.76-3.49-8.54,1.71-.53,6.33-1.68,9.23.35,3.55,2.49,5.24,6.47,3.68,8.69a4.265,4.265,0,0,1-3.75,1.53,10.518,10.518,0,0,1-5.67-2.03Zm9.42,14.5a4.265,4.265,0,0,1-3.75,1.53,10.518,10.518,0,0,1-5.67-2.03c-2.89-2.02-3.4-6.76-3.49-8.54,1.71-.53,6.33-1.67,9.23.35,3.55,2.49,5.24,6.47,3.68,8.69ZM31,35.41a13.746,13.746,0,0,0-3.36-3.31c-.09-.06-.19-.11-.29-.17A6.288,6.288,0,0,0,31,30.48ZM32,20c-2.71,0-5-3.66-5-8,0-3.53,3.59-6.67,5-7.76,1.41,1.09,5,4.22,5,7.76C37,16.34,34.71,20,32,20Zm1,10.48a6.288,6.288,0,0,0,3.65,1.45c-.1.06-.2.11-.29.17A13.746,13.746,0,0,0,33,35.41ZM43.24,41.93a10.518,10.518,0,0,1-5.67,2.03,4.277,4.277,0,0,1-3.75-1.53c-1.56-2.22.13-6.2,3.68-8.69,2.9-2.02,7.53-.88,9.23-.35-.09,1.78-.59,6.51-3.49,8.54Z"/>
        <path id="Trazado_996987" data-name="Trazado 996987" d="M61,47a9,9,0,0,0-8,4.9A9,9,0,0,0,45,47a1,1,0,0,0-1,1v2a9.01,9.01,0,0,0,8,8.941V62h2V58.941A9.01,9.01,0,0,0,62,50V48A1,1,0,0,0,61,47ZM46,50v-.929A7.011,7.011,0,0,1,52,56v.929A7.011,7.011,0,0,1,46,50Zm14,0a7.011,7.011,0,0,1-6,6.929V56a7.011,7.011,0,0,1,6-6.929Z"/>
        <path id="Trazado_996988" data-name="Trazado 996988" d="M19,47a9,9,0,0,0-8,4.9A9,9,0,0,0,3,47a1,1,0,0,0-1,1v2a9.01,9.01,0,0,0,8,8.941V62h2V58.941A9.01,9.01,0,0,0,20,50V48A1,1,0,0,0,19,47ZM4,50v-.929A7.011,7.011,0,0,1,10,56v.929A7.011,7.011,0,0,1,4,50Zm14,0a7.011,7.011,0,0,1-6,6.929V56a7.011,7.011,0,0,1,6-6.929Z"/>
      </g>
    </g>
  </g>
</svg>
