<svg xmlns="http://www.w3.org/2000/svg" xmlns:xlink="http://www.w3.org/1999/xlink" width="119.292" height="141.994" viewBox="0 0 119.292 141.994">
  <defs>
    <clipPath id="clip-path">
      <rect id="Rectángulo_454978" data-name="Rectángulo 454978" width="60.702" height="128.914" fill="none"/>
    </clipPath>
    <clipPath id="clip-path-3">
      <rect id="Rectángulo_454976" data-name="Rectángulo 454976" width="60.702" height="73.033" fill="none"/>
    </clipPath>
  </defs>
  <g id="Grupo_1177831" data-name="Grupo 1177831" transform="translate(-1081.572 -7190.183)">
    <g id="Grupo_1177457" data-name="Grupo 1177457" transform="translate(791.572 1485)">
      <path id="Rectángulo_454913" data-name="Rectángulo 454913" d="M50,0h4.356a0,0,0,0,1,0,0V107.026a0,0,0,0,1,0,0H0a0,0,0,0,1,0,0V50A50,50,0,0,1,50,0Z" transform="translate(290 5733.61)" fill="#aa1c00"/>
      <g id="Grupo_1177641" data-name="Grupo 1177641" transform="translate(292.266 5735.534) rotate(-30)">
        <g id="Grupo_1177507" data-name="Grupo 1177507" clip-path="url(#clip-path)">
          <g id="Grupo_1177506" data-name="Grupo 1177506">
            <g id="Grupo_1177505" data-name="Grupo 1177505" clip-path="url(#clip-path)">
              <path id="Trazado_996879" data-name="Trazado 996879" d="M355.756,728.968h-3.386a.433.433,0,0,1-.168-.034L341,724.233l-5.49,3.861a.427.427,0,0,1-.55-.055.319.319,0,0,1,.062-.486l5.681-4a.433.433,0,0,1,.412-.042l11.348,4.761h3.3a.348.348,0,1,1,0,.691" transform="translate(-303.342 -663.31)" fill="#e67f22"/>
              <path id="Trazado_996880" data-name="Trazado 996880" d="M87.649,728.968H84.263a.348.348,0,1,1,0-.691h3.3l11.348-4.761a.433.433,0,0,1,.412.042l5.682,4a.319.319,0,0,1,.062.486.427.427,0,0,1-.55.055l-5.49-3.861-11.207,4.7a.432.432,0,0,1-.168.034" transform="translate(-75.976 -663.31)" fill="#e67f22"/>
              <path id="Trazado_996881" data-name="Trazado 996881" d="M353.331,864.621h-3.165a.4.4,0,0,1-.36-.21l-10.229-21.1-5.025,17.373a.4.4,0,0,1-.476.249.345.345,0,0,1-.282-.42l5.311-18.359a.381.381,0,0,1,.349-.259.4.4,0,0,1,.39.208l10.581,21.821h2.907a.348.348,0,1,1,0,.691" transform="translate(-302.357 -771.878)" fill="#e67f22"/>
              <path id="Trazado_996882" data-name="Trazado 996882" d="M102.721,864.621H99.556a.348.348,0,1,1,0-.691h2.907l10.581-21.821a.4.4,0,0,1,.39-.208.381.381,0,0,1,.349.259l5.311,18.359a.345.345,0,0,1-.282.42.4.4,0,0,1-.476-.249l-5.025-17.373-10.229,21.1a.4.4,0,0,1-.36.209" transform="translate(-89.829 -771.878)" fill="#e67f22"/>
              <path id="Trazado_996883" data-name="Trazado 996883" d="M333.48,595.2a.412.412,0,0,1-.306-.13.319.319,0,0,1,.062-.486l12.013-8.47a.426.426,0,0,1,.244-.075h2.468a.348.348,0,1,1,0,.691H345.63l-11.906,8.394a.423.423,0,0,1-.244.076" transform="translate(-301.728 -537.302)" fill="#e67f22"/>
              <path id="Trazado_996884" data-name="Trazado 996884" d="M164.4,595.2a.423.423,0,0,1-.244-.076l-11.906-8.394h-2.331a.348.348,0,1,1,0-.691h2.468a.425.425,0,0,1,.244.075l12.013,8.47a.319.319,0,0,1,.062.486.412.412,0,0,1-.306.13" transform="translate(-135.455 -537.302)" fill="#e67f22"/>
              <path id="Trazado_996885" data-name="Trazado 996885" d="M162.859,43.644a.3.3,0,0,1-.3-.222c-.016-.08-1.66-8.141-4.382-17.433-3.6-12.276-7.43-21.115-11.09-25.562a.249.249,0,0,1,.067-.376.331.331,0,0,1,.425.059c3.757,4.565,7.521,13.228,11.188,25.747,2.727,9.311,4.374,17.389,4.391,17.469a.274.274,0,0,1-.246.312.349.349,0,0,1-.054,0" transform="translate(-133.187 0)" fill="#e67f22"/>
              <path id="Trazado_996886" data-name="Trazado 996886" d="M326.651,43.644a.339.339,0,0,1-.054,0,.274.274,0,0,1-.246-.312c.016-.081,1.664-8.159,4.391-17.469C334.408,13.34,338.172,4.677,341.929.112a.331.331,0,0,1,.425-.059.249.249,0,0,1,.067.376c-3.659,4.447-7.494,13.286-11.09,25.562-2.722,9.292-4.365,17.353-4.382,17.433a.3.3,0,0,1-.3.222" transform="translate(-295.621 -0.001)" fill="#e67f22"/>
              <path id="Trazado_996887" data-name="Trazado 996887" d="M287.559,524.38a1.914,1.914,0,1,1-1.9-1.678,1.8,1.8,0,0,1,1.9,1.678" transform="translate(-257.044 -479.229)" fill="#345f41"/>
              <path id="Trazado_996888" data-name="Trazado 996888" d="M324.431,524.38a1.914,1.914,0,1,1-1.9-1.678,1.8,1.8,0,0,1,1.9,1.678" transform="translate(-290.445 -479.229)" fill="#345f41"/>
              <path id="Trazado_996889" data-name="Trazado 996889" d="M292.737,537.275c0,23.786-1.539,43.069-3.437,43.069s-3.437-19.283-3.437-43.069,1.539-28.686,3.437-28.686,3.437,4.9,3.437,28.686" transform="translate(-258.949 -466.29)" fill="#a5c63b"/>
              <g id="Grupo_1177504" data-name="Grupo 1177504" transform="translate(0 55.881)" opacity="0.6">
                <g id="Grupo_1177503" data-name="Grupo 1177503">
                  <g id="Grupo_1177502" data-name="Grupo 1177502" clip-path="url(#clip-path-3)">
                    <path id="Trazado_996890" data-name="Trazado 996890" d="M29.152,715.175c-.009.182-.019.362-.029.544a102.62,102.62,0,0,1-1.1,10.821c-.027.166-.054.332-.083.5a44.006,44.006,0,0,1-2.242,8.578c-.05.13-.1.259-.154.385a15.064,15.064,0,0,1-3.329,5.247c-.1.1-.207.194-.31.286-.083.075-.167.148-.249.22a12.519,12.519,0,0,1-5.911,2.991c-.113.021-.227.04-.34.057a11.539,11.539,0,0,1-9.484-3.145c-.082-.073-.163-.148-.244-.224A18.465,18.465,0,0,1,.5,731.946c-.037-.168-.072-.337-.1-.508a24.061,24.061,0,0,1,2.3-15.292c.05-.1.1-.206.154-.31l0-.009c1.092-2.147,2.238-4.353,3.415-6.578.053-.1.106-.2.159-.3C7.5,706.925,8.6,704.886,9.7,702.861l.158-.291q1.194-2.2,2.387-4.36c.054-.1.106-.194.16-.289,1.236-2.239,2.456-4.429,3.636-6.529l.162-.288c1.534-2.729,3-5.3,4.325-7.624l.156-.274c3.559-6.22,6.133-10.6,6.531-11.321,0,0,.333,2.63.737,6.881.019.2.037.395.056.6.548,5.878,1.2,14.569,1.333,23.661,0,.184.006.367.008.552.047,3.864,0,7.791-.193,11.6" transform="translate(0 -671.886)" fill="#e8f9a2"/>
                    <path id="Trazado_996891" data-name="Trazado 996891" d="M28.777,773.449l4.4,5.975c0-.185,0-.369-.008-.552L25.154,767.99l6.684-12.779c-.019-.2-.037-.4-.056-.6l-3.771,7.21-3.5-2.769-.157.274,3.506,2.776-4.381,8.374-3.45-3.525-.162.287,3.458,3.533-3.476,6.647-3.618-3.652c-.054.1-.106.193-.16.29l3.624,3.656-2.332,4.46-3.679-3.757-.158.29,3.682,3.762-3.318,6.343L10.264,784.8c-.053.1-.106.2-.159.3l3.63,4.018L10.1,796.06l-3.413-4.385,0,.009c-.053.1-.1.206-.154.31l3.408,4.379L4.232,807.285q.049.256.1.508l3.975-7.6,5.433,10.174-4.238,6.911c.08.076.162.151.244.224l4.172-6.8,5.312,9.948c.113-.018.227-.037.34-.057l-1.966-3.681,4.74-4.808,3.137,5.5c.083-.072.167-.145.249-.22l-7.877-13.8,3.984-4.914,7.532,13.185c.051-.127.1-.255.154-.385L15.376,786.686l3.149-6.02,13.244,22.217c.029-.165.056-.331.083-.5l-7.463-12.519,4.051-5.138,4.517,6.837c.01-.182.02-.363.029-.544l-7.633-11.553Zm-6.592,38.367-4.733,4.8L8.494,799.843l3.279-6.27Zm-.514-13.453-3.983,4.914-3.305-5.791,3.761-5.3Zm-3.7-6.481-3.761,5.3-2.253-3.948,3.242-6.2Zm7.021-23.574,3.576,4.854-3.414,6-3.259-4.934Zm3.265,16.138-4.041,5.125L18.7,780.327l3.018-5.77Z" transform="translate(-3.834 -747.732)" fill="#8fb021"/>
                    <path id="Trazado_996892" data-name="Trazado 996892" d="M333.088,715.175c.009.182.019.362.029.544a102.619,102.619,0,0,0,1.1,10.821c.027.166.054.332.083.5a44.006,44.006,0,0,0,2.242,8.578c.05.13.1.259.154.385a15.064,15.064,0,0,0,3.329,5.247c.1.1.207.194.31.286.083.075.167.148.249.22a12.519,12.519,0,0,0,5.911,2.991c.113.021.227.04.34.057a11.539,11.539,0,0,0,9.484-3.145c.082-.073.163-.148.244-.224a18.465,18.465,0,0,0,5.17-9.486c.037-.168.072-.337.1-.508a24.061,24.061,0,0,0-2.3-15.292c-.05-.1-.1-.206-.154-.31l0-.009c-1.092-2.147-2.238-4.353-3.415-6.578-.053-.1-.106-.2-.159-.3-1.072-2.024-2.167-4.063-3.266-6.088l-.158-.291q-1.194-2.2-2.387-4.36c-.054-.1-.106-.194-.16-.289-1.236-2.239-2.456-4.429-3.636-6.529l-.162-.288c-1.534-2.729-3-5.3-4.325-7.624l-.156-.274c-3.559-6.22-6.133-10.6-6.531-11.321,0,0-.333,2.63-.737,6.881-.019.2-.037.395-.056.6-.548,5.878-1.2,14.569-1.333,23.661,0,.184-.006.367-.008.552-.047,3.864,0,7.791.193,11.6" transform="translate(-301.538 -671.886)" fill="#e8f9a2"/>
                    <path id="Trazado_996893" data-name="Trazado 996893" d="M340.883,779.468l-7.633,11.553c.009.182.019.362.029.544l4.517-6.837,4.051,5.138-7.463,12.519c.027.166.054.332.083.5l13.244-22.217,3.148,6.02-14.151,24.775c.05.13.1.259.154.385l7.531-13.185,3.984,4.914-7.877,13.8c.083.075.167.148.249.22l3.137-5.5,4.74,4.808-1.966,3.681c.113.021.227.04.34.057l5.312-9.947,4.172,6.8c.082-.073.163-.148.244-.224l-4.238-6.911,5.433-10.175,3.975,7.6c.037-.168.072-.337.1-.508l-5.708-10.913,3.408-4.379c-.05-.1-.1-.206-.154-.31l0-.009-3.412,4.385-3.633-6.946,3.63-4.018c-.052-.1-.106-.2-.159-.3l-3.629,4.017-3.319-6.343,3.682-3.762-.158-.29-3.679,3.757-2.332-4.46,3.624-3.657c-.054-.1-.106-.193-.16-.289l-3.618,3.652-3.476-6.647,3.458-3.533-.162-.288-3.451,3.525L338.37,762.1l3.506-2.776-.157-.274-3.5,2.769-3.771-7.209c-.019.2-.037.4-.056.6l6.684,12.779-8.017,10.882c0,.184-.006.367-.008.552l4.4-5.975Zm13.578,14.1,3.279,6.27-8.957,16.773-4.733-4.8Zm-6.37-1.383,3.761,5.3-3.305,5.791-3.983-4.914Zm2.947-5.16,3.242,6.2-2.253,3.948-3.761-5.295Zm-6.7-12.8-3.259,4.934-3.414-6,3.576-4.854Zm.172.329,3.018,5.769-5.511,9.244-4.041-5.125Z" transform="translate(-301.699 -747.732)" fill="#8fb021"/>
                  </g>
                </g>
              </g>
            </g>
          </g>
        </g>
      </g>
    </g>
  </g>
</svg>
